P3
# man page
4 4
255
2 5 7 8 8 1 3 4 10 255 1 255 
1 1 1 1 254 119 1 1 0 0 1 0 
0 1 1 1 0 1 0 255 118 1 1 1 
255 1 255 1 0 1 1 1 1 1 1 1 